<svg xmlns="http://www.w3.org/2000/svg" viewBox="0 0 94.02 50.76"><defs><style>.cls-1{fill:#fff;}</style></defs><title>sebrae</title><g id="Camada_2" data-name="Camada 2"><g id="Camada_1-2" data-name="Camada 1"><g id="fQF17M"><path class="cls-1" d="M65.84,0a1.77,1.77,0,0,1-.1.65c-.3,1.53-.61,3.05-.92,4.57l0,.14c0,.11-.06.14-.16.13H35.41a.76.76,0,0,1-.3,0,.29.29,0,0,1,0-.16c.31-1.54.63-3.07.93-4.61a2.78,2.78,0,0,0,.12-.7Z"/><path class="cls-1" d="M94,17.41a2.45,2.45,0,0,0-.13.55c-.16.74-.32,1.49-.47,2.23,0,.2,0,.2-.26.2H85.87c-.29,0-.29,0-.35.28-.2.94-.4,1.88-.61,2.82a.44.44,0,0,0,0,.23.61.61,0,0,0,.27,0h6.76c.27,0,.27,0,.21.27-.18.86-.37,1.72-.56,2.57,0,.25-.06.25-.33.25H85c-.22,0-.44,0-.66,0s-.17,0-.2.16c-.19.93-.39,1.87-.59,2.8,0,.12,0,.25-.08.38s0,.1.08.1h7.57a.55.55,0,0,1,.28,0,2.54,2.54,0,0,1-.1.55c-.16.77-.33,1.54-.5,2.31a.35.35,0,0,0,0,.11c0,.11-.07.14-.17.13h-12a.89.89,0,0,1-.27,0l.24-1.11c.58-2.67,1.15-5.34,1.73-8,.48-2.25,1-4.5,1.45-6.75,0-.19.05-.19.24-.19H94Z"/><path class="cls-1" d="M55.2,50.71v0H25.51V50.7H55.2Z"/><path class="cls-1" d="M.07,29.87H0v-.78H.08Z"/><path class="cls-1" d="M56.09,25.46a2.12,2.12,0,0,0,.44.05,4.89,4.89,0,0,1,1.08.19A1.75,1.75,0,0,1,59,27.28a7.51,7.51,0,0,1,0,1.42c0,.69-.08,1.39-.13,2.08s0,1.51,0,2.27a.69.69,0,0,0,0,.28.39.39,0,0,0,.14-.18q3.11-5,6.19-10,1.74-2.79,3.46-5.59a.38.38,0,0,1,.35-.19h5.07c.23,0,.23,0,.27.23q.66,3.51,1.31,7l1.29,6.88c.1.57.21,1.13.31,1.69a.37.37,0,0,1,0,.18.42.42,0,0,1-.22,0H72.31c-.11,0-.15,0-.16-.14,0-.27-.07-.53-.11-.8-.09-.71-.19-1.42-.28-2.13,0-.12-.06-.15-.17-.15s-.38,0-.57,0c-1.87,0-3.74,0-5.6,0a.33.33,0,0,0-.34.2l-1.59,2.83a.32.32,0,0,1-.32.19h-9c-.2,0-.2,0-.2-.21a17.53,17.53,0,0,1,.1-1.78c.07-.89.16-1.78.24-2.67a2.56,2.56,0,0,0,0-.73.93.93,0,0,0-.69-.77,2.43,2.43,0,0,0-.7-.11l-2.16,0c-.13,0-.16.06-.19.17-.2,1-.41,1.94-.62,2.91l-.66,3c0,.18,0,.19-.23.19H44.83a.28.28,0,0,1-.19,0c0-.24.1-.5.16-.75Q46,26.76,47.31,20.92c.25-1.14.49-2.27.74-3.4,0-.21,0-.21.24-.21h8.84a6.92,6.92,0,0,1,1.86.23,2.7,2.7,0,0,1,1.71,1.31,3,3,0,0,1,.35,1.46,5.52,5.52,0,0,1-.56,2.48,4.1,4.1,0,0,1-2.06,1.94,8.75,8.75,0,0,1-2.19.64C56.19,25.38,56.11,25.36,56.09,25.46Zm-3.22-1.24a13.07,13.07,0,0,0,1.57-.08A2.08,2.08,0,0,0,56.12,23a3.09,3.09,0,0,0,.31-1.19,1.24,1.24,0,0,0-1-1.36,4,4,0,0,0-.76-.13c-.84-.05-1.69,0-2.53,0a.16.16,0,0,0-.18.15c-.08.4-.17.79-.25,1.19L51.22,24c0,.22,0,.23.19.23Zm14,3a.46.46,0,0,0,.27,0H71.1c.22,0,.22,0,.21-.21l-.06-.71c-.11-1-.21-2-.31-3l-.24-2.55a.35.35,0,0,0-.08-.21C69.37,22.74,68.14,25,66.91,27.19Z"/><path class="cls-1" d="M40.9,25a1.46,1.46,0,0,0,.39.11,5.19,5.19,0,0,1,1.53.6A2.55,2.55,0,0,1,44.09,28a5,5,0,0,1-2.23,4.22,5.71,5.71,0,0,1-2.42,1,16.42,16.42,0,0,1-2.71.22H29.38a.41.41,0,0,1-.21,0,4.94,4.94,0,0,1,.12-.65c.52-2.41,1-4.83,1.55-7.24q.72-3.36,1.43-6.71c.1-.45.2-.9.29-1.35,0-.12.07-.18.19-.16h8.54a5.11,5.11,0,0,1,2.36.58,2.85,2.85,0,0,1,1.57,1.94A3.75,3.75,0,0,1,45,21.9a4.4,4.4,0,0,1-2.17,2.38,8.64,8.64,0,0,1-1.69.64Zm-6.69,5.43h2.67a3.34,3.34,0,0,0,.84-.11,2.13,2.13,0,0,0,1.49-1.08A2.76,2.76,0,0,0,39.52,28a1.19,1.19,0,0,0-.79-1.17,2.86,2.86,0,0,0-.92-.2c-.85,0-1.71,0-2.56,0-.24,0-.24,0-.28.23-.2.91-.39,1.83-.59,2.75C34.32,29.84,34.27,30.12,34.21,30.42ZM37,23.72a14.25,14.25,0,0,0,1.6,0,2,2,0,0,0,1.07-.34,2.26,2.26,0,0,0,.91-2.13,1.08,1.08,0,0,0-.72-.93,2.17,2.17,0,0,0-.56-.13c-.93-.06-1.86,0-2.79,0a.14.14,0,0,0-.16.12c0,.16-.07.32-.1.47l-.6,2.82c0,.18,0,.19.15.19Z"/><path class="cls-1" d="M64.05,8.54c-.11.57-.22,1.13-.34,1.69-.23,1.19-.47,2.37-.71,3.55,0,.22,0,.23-.28.23H33.5c-.23,0-.24,0-.19-.24l1-5.07c0-.18,0-.18.22-.18H63.73A.89.89,0,0,1,64.05,8.54Z"/><path class="cls-1" d="M55.2,50.71H25.52c.19-.94.37-1.88.56-2.82s.33-1.61.49-2.42c0-.23,0-.23.28-.23H56.11c.19,0,.19,0,.16.19l-.36,1.77-.66,3.3A1.42,1.42,0,0,0,55.2,50.71Z"/><path class="cls-1" d="M58.1,36.76c0,.29-.11.58-.16.87-.29,1.43-.57,2.86-.87,4.28-.07.33,0,.29-.36.29H27.65c-.32,0-.32,0-.26-.32.33-1.66.67-3.32,1-5,0-.18,0-.18.22-.18H57.79A.67.67,0,0,1,58.1,36.76Z"/><path class="cls-1" d="M.07,29.87v-.79c0-.25.07-.51.1-.77s.08-.17.2-.15h4.1c.21,0,.21,0,.18.22a2.44,2.44,0,0,0,0,1,1.34,1.34,0,0,0,.7.89,2.38,2.38,0,0,0,.81.25,4.57,4.57,0,0,0,2-.12,2,2,0,0,0,1.55-1.81.94.94,0,0,0-.45-1,2,2,0,0,0-.67-.28l-3.81-1a5.46,5.46,0,0,1-1.56-.64,2.92,2.92,0,0,1-1.41-1.73,3.4,3.4,0,0,1,0-1.52,5.41,5.41,0,0,1,2.57-3.76,8.09,8.09,0,0,1,3.17-1.19,14.26,14.26,0,0,1,3.39-.12,7.46,7.46,0,0,1,2.55.58,3.51,3.51,0,0,1,.79.47,2.79,2.79,0,0,1,1.09,2.11A5.59,5.59,0,0,1,15.21,22c-.05.22-.05.22-.26.22h-4a.48.48,0,0,1-.26,0l.06-.35a1.79,1.79,0,0,0,0-.61,1.14,1.14,0,0,0-.85-1,3,3,0,0,0-2.68.45A1.72,1.72,0,0,0,6.48,22a1,1,0,0,0,.48.91,2.32,2.32,0,0,0,.77.34l2.08.55a21.42,21.42,0,0,1,2.59.78,4.39,4.39,0,0,1,1.2.7A2.4,2.4,0,0,1,14.45,27a5.37,5.37,0,0,1-2.36,4.77A8.16,8.16,0,0,1,9,33.12a14.14,14.14,0,0,1-3.84.24A10.07,10.07,0,0,1,2.86,33a6.82,6.82,0,0,1-.79-.31A3.32,3.32,0,0,1,.07,29.87Z"/><path class="cls-1" d="M21.53,23.72a.68.68,0,0,0,.28,0h6.74c.3,0,.29,0,.23.29-.19.85-.37,1.71-.56,2.56,0,.24,0,.24-.29.24H21.11c-.31,0-.27,0-.34.29-.21,1-.43,2-.64,3a.2.2,0,0,0,0,.13h7.93c-.09.42-.17.82-.26,1.21l-.36,1.68c-.06.24-.06.24-.31.24H15a.3.3,0,0,1,0-.21L17.29,22.5c.35-1.65.71-3.31,1.06-5,0-.23,0-.23.28-.23H30.42a.58.58,0,0,1,.23,0,.4.4,0,0,1,0,.19c-.19.89-.39,1.77-.57,2.66-.05.25-.08.21-.27.21H22.37c-.1,0-.15,0-.17.14-.22,1-.45,2.1-.67,3.15C21.52,23.68,21.53,23.69,21.53,23.72Z"/></g></g></g></svg>