<svg xmlns="http://www.w3.org/2000/svg" viewBox="0 0 131.04 43.77"><defs><style>.cls-1{fill:#8db43b;}.cls-2{fill:#389f90;}.cls-3{fill:#cbd12a;}.cls-4{fill:#fff;}</style></defs><title>sicoob</title><g id="Camada_2" data-name="Camada 2"><g id="Camada_1-2" data-name="Camada 1"><path class="cls-1" d="M1.63,0A2,2,0,0,0,.89.23,1.77,1.77,0,0,0,0,1.77a1.73,1.73,0,0,0,.19.79L8.91,17.72l2.83-4.89h0l4.61-7.95L13.52,0Z"/><path class="cls-2" d="M13.52,0,21,12.83h5.64L32.52,2.52a1.69,1.69,0,0,0,.18-.75A1.79,1.79,0,0,0,31,0Z"/><path class="cls-3" d="M26.17,12.83H11.74L8.91,17.72l6,10.29a1.7,1.7,0,0,0,.56.54A1.77,1.77,0,0,0,17.83,28l8.76-15.15Z"/><path class="cls-4" d="M83.11,4.61H83c-5.84.06-9.45,4.5-9.45,10.06,0,5.34,3.28,9.82,9.25,9.82H83c5.82-.07,9.46-4,9.46-10.14C92.45,9.21,89.31,4.61,83.11,4.61Zm-.06,15.8H83c-2.48,0-4-2.4-4-5.86s1.52-5.86,4-5.86,4,2.52,4,5.83C87,18,85.53,20.41,83.05,20.41Zm43-6.63v-.06c2.26-.85,3.14-2.43,3.14-4a4.27,4.27,0,0,0-2.6-4,10.63,10.63,0,0,0-4.71-.93c-.37,0-.76,0-1.18,0a38.76,38.76,0,0,0-6.08.43V24.07a29.12,29.12,0,0,0,5.09.34c.77,0,1.5,0,2.17-.07,2.82-.19,4.61-.77,5.77-1.64a5.24,5.24,0,0,0,2.17-4.24A4.76,4.76,0,0,0,126,13.78Zm-6.32-5.17a9.49,9.49,0,0,1,1.69-.12,3.55,3.55,0,0,1,.46,0c1.43.11,2.14.79,2.14,1.8s-.7,1.7-2.14,1.93a9.47,9.47,0,0,1-1.12.07h-1Zm2.15,12a4.87,4.87,0,0,1-.66,0,10.22,10.22,0,0,1-1.49-.06V16h1.23a9,9,0,0,1,.92.05c1.47.19,2.51.85,2.51,2.21S123.24,20.44,121.83,20.6ZM113,14.35c0-5.14-3.14-9.74-9.34-9.74h-.12c-5.84.06-9.45,4.5-9.45,10.06,0,5.34,3.28,9.82,9.26,9.82h.19C109.38,24.42,113,20.49,113,14.35Zm-9.4,6.06h-.06c-2.48,0-4-2.4-4-5.86s1.51-5.86,4-5.86,4,2.52,4,5.83C107.56,18,106.11,20.41,103.62,20.41Zm-31.57-.77a10.77,10.77,0,0,1-3.43.54C65.08,20.18,63,18,63,14.52c0-3.91,2.56-5.65,5.51-5.65a9.82,9.82,0,0,1,3.57.68c.91-2.08.69-4.91-3.8-4.91-5.74,0-10.71,3.45-10.71,10.22,0,5.12,3.17,9.6,10.37,9.6a12.45,12.45,0,0,0,4.82-.79ZM49.93,4.93V24.18H55.1V8.08C55.1,5.66,53.79,4.93,49.93,4.93Zm-7.51,7.6C40,11.61,39,11.24,39,10.27s.87-1.42,2.44-1.42a10.59,10.59,0,0,1,4.17.91c.73-2,1.15-5.12-4.11-5.12-4.86,0-7.75,2.63-7.75,6,0,2.86,2.18,4.63,5.43,5.8,2.17.74,3,1.26,3,2.2s-.86,1.57-2.63,1.57a11.52,11.52,0,0,1-5-1.2l-1,4.26a13.68,13.68,0,0,0,5.66,1.17c5.63,0,8.2-2.83,8.2-6.14C47.42,15.64,45.88,13.81,42.42,12.53Z"/><path class="cls-4" d="M131,39a.6.6,0,0,0-.2-.47.7.7,0,0,0-.78-.06.74.74,0,0,0-.43.9.64.64,0,0,0,.56.35A.82.82,0,0,0,131,39Zm-1.41-4.29a1.31,1.31,0,0,0-1.12-.94,2.63,2.63,0,0,0-1.58.37,5.55,5.55,0,0,0-1.81,1.6,5.71,5.71,0,0,0-.6,1.08,3.09,3.09,0,0,0-.18,1.83,1.35,1.35,0,0,0,.64.77,3,3,0,0,0,.57.21,2.17,2.17,0,0,0,1.7-.28A3.13,3.13,0,0,0,128.4,38c0-.07.06-.17,0-.21s-.14,0-.2.08a3,3,0,0,1-2.13,1.18.55.55,0,0,1-.5-.22.59.59,0,0,1-.06-.37,4.53,4.53,0,0,1,1.09-2.59A4.44,4.44,0,0,1,129,34.47a1.49,1.49,0,0,1-.24,1,3.15,3.15,0,0,1-.71.75,1.47,1.47,0,0,1-1.39.42.81.81,0,0,0,.65.46,1.66,1.66,0,0,0,.81-.16,2.89,2.89,0,0,0,1.34-1.29,1.41,1.41,0,0,0,.18-.82A.31.31,0,0,0,129.63,34.71Zm-21.21,0,0-.06a1.39,1.39,0,0,0-1.15-.8,2.55,2.55,0,0,0-1.43.31,4.88,4.88,0,0,0-1.71,1.38,4.11,4.11,0,0,0-.33-1A1.38,1.38,0,0,0,103,34c-.72,1.66-1.41,3.34-2,5-.33.84-.64,1.69-1,2.55a1.89,1.89,0,0,0,.15,2c.06.07.13.13.2.2a.26.26,0,0,0,.11.07c.14,0,.23-.15.26-.28a27.18,27.18,0,0,1,2-4.49,3,3,0,0,0,.63.45,1.93,1.93,0,0,0,1,.12,4,4,0,0,0,2.24-1.11,7.61,7.61,0,0,0,1.48-2A2.18,2.18,0,0,0,108.42,34.76Zm-1.08.11v0A1.89,1.89,0,0,1,107,36a4.66,4.66,0,0,1-.75.85,7.37,7.37,0,0,1-2.43,1.8,1.47,1.47,0,0,1-.66.13c-.33,0-.32-.12-.18-.37a8.71,8.71,0,0,1,.78-1.19,9.77,9.77,0,0,1,2-2,2.2,2.2,0,0,1,1.33-.51.23.23,0,0,1,.18.08A.32.32,0,0,1,107.34,34.87Zm-9.19,1.05-.08-.07a1,1,0,0,0-.32-.17c-.38-.11-.75.17-1.06.42L94.1,38.33a1.42,1.42,0,0,1-.65.37.35.35,0,0,1-.36-.16.49.49,0,0,1,0-.24,3.91,3.91,0,0,1,.84-1.66l.31-.33.52-.54.3-.31a4.65,4.65,0,0,1,2.11-1.12.88.88,0,0,1,.36,0,.37.37,0,0,1,.28.2c.06.14,0,.34.13.42a.2.2,0,0,0,.29-.12.43.43,0,0,0,0-.35A1.47,1.47,0,0,0,97,33.58a2.37,2.37,0,0,0-.65,0,5.18,5.18,0,0,0-1.09.3,5.89,5.89,0,0,0-2.51,1.93A10.84,10.84,0,0,0,92,37.14a2.44,2.44,0,0,0-.16,1.68,1.35,1.35,0,0,0,1.4.8,2.57,2.57,0,0,0,.82-.35,11.12,11.12,0,0,0,2.32-2v.31a3.66,3.66,0,0,0,.3,1.11,1.33,1.33,0,0,0,.15.32.77.77,0,0,0,.71.32,3.38,3.38,0,0,1,.26-1.68l.45-1.3a.59.59,0,0,0,0-.23A.42.42,0,0,0,98.15,35.92Zm-6.48-1.6a1.37,1.37,0,0,0-.89-.75,2.31,2.31,0,0,0-1.22-.09,3.19,3.19,0,0,0-.72.29,4.57,4.57,0,0,0-1.75,1.51,4.38,4.38,0,0,0-.87,3.22,1.56,1.56,0,0,0,1.46,1.17,4.38,4.38,0,0,1-1.46,1.91,1.76,1.76,0,0,0,1.13-.12,4.06,4.06,0,0,0,1-.64,2.56,2.56,0,0,0,.53-.56,1,1,0,0,0,.15-.72,3.85,3.85,0,0,0,1.39-.94l.32-.28a1.52,1.52,0,0,0,.62-1,.48.48,0,0,0-.06-.26A.22.22,0,0,0,91,37a.3.3,0,0,0-.13.12,5.86,5.86,0,0,1-1.11,1.22,2.08,2.08,0,0,1-1.53.46.22.22,0,0,1-.14-.06.21.21,0,0,1-.07-.13,3.16,3.16,0,0,1,.28-2.27,6,6,0,0,1,1.48-1.78,1.62,1.62,0,0,1,1-.49.32.32,0,0,1,.14,0,.25.25,0,0,1,.12.16c.08.23,0,.55.2.68a.31.31,0,0,0,.4-.09.54.54,0,0,0,.07-.43A.26.26,0,0,0,91.67,34.32ZM85.48,36l-.08-.07a1.05,1.05,0,0,0-.31-.17c-.39-.11-.76.17-1.06.42l-2.6,2.23a1.32,1.32,0,0,1-.65.36.32.32,0,0,1-.35-.15.33.33,0,0,1,0-.24,3.89,3.89,0,0,1,.83-1.66l.31-.33.52-.54c.1-.11.2-.21.31-.31a4.55,4.55,0,0,1,2.11-1.12.82.82,0,0,1,.35,0,.35.35,0,0,1,.28.2c.06.14,0,.34.13.42s.25,0,.3-.12a.51.51,0,0,0,0-.36,1.5,1.5,0,0,0-1.15-.88,2.81,2.81,0,0,0-.65,0,5,5,0,0,0-1.09.3,5.92,5.92,0,0,0-2.52,1.93,5.79,5.79,0,0,0-1,2.13,1.67,1.67,0,0,0,.07.86,1.32,1.32,0,0,0,1.4.8,2.48,2.48,0,0,0,.82-.35,11.18,11.18,0,0,0,2.33-2c0,.1,0,.21,0,.31A3.64,3.64,0,0,0,84,38.81a1.37,1.37,0,0,0,.16.32.76.76,0,0,0,.7.32,3.28,3.28,0,0,1,.27-1.68l.44-1.3a.59.59,0,0,0,0-.23A.44.44,0,0,0,85.48,36Zm39.67-1.91a1.35,1.35,0,0,0,.76-.25.16.16,0,0,0,.08-.12.15.15,0,0,0,0-.09.88.88,0,0,0-.63-.23l-.79-.06c.17-.35.4-.66.55-1a1.51,1.51,0,0,0,.11-1.12,1.54,1.54,0,0,0-1.11-.83,14.74,14.74,0,0,1-1.16,2.6,1,1,0,0,1-.35.41,1.17,1.17,0,0,1-.45.09l-.91.05c-.11,0-.28,0-.31.09s.1.23.18.28a1,1,0,0,0,.39.08l.92.06s.12,0,.14.06a.14.14,0,0,1,0,.15,19.88,19.88,0,0,0-1.92,4,1.53,1.53,0,0,0-.11,1c.1.31.48.56.76.39a3.1,3.1,0,0,1,.13-.4c.12-.29.24-.58.38-.87.3-.66.64-1.3,1-1.94l1-2a.68.68,0,0,1,.24-.29.56.56,0,0,1,.28-.05C124.57,34.08,124.86,34.1,125.15,34.08Zm-4.45,1.55a.26.26,0,0,0,0-.15,2,2,0,0,0-.08-.7.73.73,0,0,0-.47-.48,1.08,1.08,0,0,0-.61.07,6,6,0,0,0-2.33,1.53,2.68,2.68,0,0,0,.19-1.39,1.22,1.22,0,0,0-.87-1h-.06s0,0-.05.07l-1,3.25c-.16.51-.32,1-.49,1.54a1.26,1.26,0,0,0,0,1.22.34.34,0,0,0,.27.13c.13,0,.22-.13.29-.23.63-.93,1.2-1.9,1.89-2.79a3.43,3.43,0,0,1,.61-.65,3.76,3.76,0,0,1,.71-.39,3.05,3.05,0,0,1,.87-.28,1.05,1.05,0,0,1,.86.24.16.16,0,0,0,.12.08A.1.1,0,0,0,120.7,35.63Zm-6.21.45a.83.83,0,0,0-.77-.23,2.2,2.2,0,0,0-.94.63c-.76.7-1.55,1.35-2.34,2a1.59,1.59,0,0,1-.65.38.3.3,0,0,1-.21,0c-.14-.07-.15-.27-.12-.43a3.14,3.14,0,0,1,.5-1.21,5.57,5.57,0,0,1,.5-.59,9.68,9.68,0,0,1,1.42-1.37,3.57,3.57,0,0,1,1.8-.76.45.45,0,0,1,.46.15c.08.15,0,.38.17.46a.21.21,0,0,0,.28-.14.51.51,0,0,0,0-.34,1.51,1.51,0,0,0-1.08-.87,2.4,2.4,0,0,0-1,.06,6,6,0,0,0-2.93,1.74c-.74.79-1.72,2.2-1.36,3.34a1.34,1.34,0,0,0,1.47.89,2.57,2.57,0,0,0,.81-.37,10.87,10.87,0,0,0,2.3-1.93,3.23,3.23,0,0,0,.28,1.39,1.33,1.33,0,0,0,.15.32.8.8,0,0,0,.72.36,3.22,3.22,0,0,1,.25-1.64q.16-.51.36-1a1.06,1.06,0,0,0,.12-.55A.48.48,0,0,0,114.49,36.08ZM79.74,34l.88-.1c.21,0,.48-.13.44-.34s-.21-.21-.37-.23a10.71,10.71,0,0,0-2.77,0c-.12,0-.28,0-.33-.11a.36.36,0,0,1,0-.22L79,30.46c-.12.24-.25.47-.39.7l.5-.92a1.23,1.23,0,0,1,.32-.42,1.21,1.21,0,0,1,.68-.17l2.26-.11a.45.45,0,0,0,.34-.13.27.27,0,0,0,0-.26c-.1-.31-.51-.37-.84-.37-1.39,0-2.79.14-4.18.26a1.46,1.46,0,0,0-.51.12.47.47,0,0,0-.26.43c0,.11.09.21.12.32a.89.89,0,0,1-.15.6c-.61,1.17-1.18,2.37-1.71,3.59-.26.61-.52,1.23-.76,1.85-.13.31-.24.62-.36.93s-.18.57-.27.87-.14.54-.2.82a2,2,0,0,0,0,.69.77.77,0,0,0,.39.56.25.25,0,0,0,.12,0,.25.25,0,0,0,.14-.16Q75.51,37,77,34.48a.53.53,0,0,1,.11-.15.51.51,0,0,1,.22-.06Z"/></g></g></svg>