<svg xmlns="http://www.w3.org/2000/svg" viewBox="0 0 124.39 44.32"><defs><style>.cls-1{fill:#21955d;}.cls-2,.cls-3{fill:#fff;}.cls-3{fill-rule:evenodd;}</style></defs><title>unimed</title><g id="Camada_2" data-name="Camada 2"><g id="Camada_1-2" data-name="Camada 1"><path class="cls-1" d="M9.58,43.59A8.86,8.86,0,0,1,.73,34.72V9.56A8.87,8.87,0,0,1,9.58.7H114.81a8.87,8.87,0,0,1,8.86,8.86v34H9.58Z"/><path class="cls-2" d="M114.81,1.45a8.13,8.13,0,0,1,8.13,8.13v33.3H9.58a8.13,8.13,0,0,1-8.13-8.14V9.58A8.13,8.13,0,0,1,9.58,1.45H114.81m0-1.45H9.58A9.59,9.59,0,0,0,0,9.58V34.74a9.59,9.59,0,0,0,9.58,9.58H124.39V9.58A9.59,9.59,0,0,0,114.81,0Z"/><polygon class="cls-3" points="100.08 15.69 104.4 15.69 110.92 24.34 106.58 24.34 109.83 28.66 104.4 28.66 101.17 24.34 103.31 24.34 100.08 20.02 103.31 20.02 100.08 15.69"/><polygon class="cls-3" points="100.08 15.69 95.75 15.69 89.25 24.34 93.57 24.34 90.34 28.66 95.75 28.66 99 24.34 96.82 24.34 100.08 20.02 96.84 20.02 100.08 15.69"/><path class="cls-3" d="M18.13,16.56H13.51v7.35c0,3.55,2.64,4.94,6,4.94,3.64,0,6.07-1.3,6.07-5.21V16.56H21v7.17c0,1.18-.27,2-1.47,2s-1.44-.86-1.44-2V16.56Z"/><path class="cls-3" d="M26.71,28.66h4.36V23.45c0-.5,0-1.2.78-1.2s.77.7.77,1.2v5.21H37V22.39c0-1.76-.85-3-3.17-3a3,3,0,0,0-2.95,1.77h0V19.63H26.69v9Z"/><path class="cls-3" d="M38.49,28.66h4.35v-9H38.49v9Zm4.35-13H38.49v3h4.35v-3Z"/><path class="cls-3" d="M44.27,28.66h4.35V23.45c0-.5,0-1.2.81-1.2s.73.7.73,1.2v5.21h4.39V23.45c0-.5,0-1.2.73-1.2s.78.7.78,1.2v5.21h4.36V23.25c0-1.77,0-3.82-3.18-3.82-1.09,0-2.58.5-2.89,1.55h0a2.81,2.81,0,0,0-2.82-1.55,3,3,0,0,0-3.09,1.77h0V19.63H44.25v9Z"/><path class="cls-3" d="M65.58,23.27c-.06-.72.14-1.77,1.17-1.77s1.09,1.09,1.09,1.77Zm6,1.91v-.54c0-3.05-1.23-5.23-4.75-5.23S61.28,21,61.28,24s1.94,4.89,5.58,4.89a14.25,14.25,0,0,0,4.07-.53V26a6.75,6.75,0,0,1-3,.55c-1.28,0-2.32-.27-2.4-1.39h6Z"/><path class="cls-3" d="M83.47,28.66v-13H79.12v5.13h0a3,3,0,0,0-2.73-1.4c-2.71,0-3.82,2.15-3.82,4.59s1.06,4.85,4,4.85A2.75,2.75,0,0,0,79.39,27h0v1.64h4Zm-4.23-4.57c0,.86-.14,1.85-1,1.85S77.07,25,77.07,24s.14-1.89,1.05-1.89,1.12,1,1.12,2Z"/><polygon class="cls-3" points="87.09 30.82 87.09 13.51 86.36 13.51 86.36 30.82 87.09 30.82 87.09 30.82"/></g></g></svg>